<svg width="19" height="22" fill="none" xmlns="http://www.w3.org/2000/svg"><path fill-rule="evenodd" clip-rule="evenodd" d="M12.4 13.932c.11-.123.241-.221.385-.288a1.079 1.079 0 01.91 0c.144.067.275.165.385.288l4.572 5.116c.223.249.348.587.348.94 0 .352-.125.69-.347.94a1.132 1.132 0 01-.84.389c-.315 0-.617-.14-.84-.39L12.4 15.814a1.349 1.349 0 01-.258-.432 1.466 1.466 0 010-1.017c.06-.162.148-.308.258-.432z" fill="#888"/><path fill-rule="evenodd" clip-rule="evenodd" d="M7.719 16.003c.857 0 1.707-.19 2.5-.557a6.534 6.534 0 002.118-1.584 7.42 7.42 0 001.416-2.37 8.066 8.066 0 00.497-2.797c0-.96-.169-1.91-.497-2.796a7.418 7.418 0 00-1.416-2.371 6.534 6.534 0 00-2.119-1.584 5.935 5.935 0 00-2.5-.556c-1.731 0-3.393.77-4.618 2.14-1.224 1.37-1.913 3.229-1.913 5.167 0 1.938.689 3.797 1.913 5.167 1.225 1.37 2.887 2.14 4.619 2.14zm7.718-7.308c0 2.29-.813 4.487-2.26 6.107-1.448 1.62-3.411 2.53-5.458 2.53s-4.01-.91-5.458-2.53C.813 13.182 0 10.985 0 8.695s.813-4.487 2.26-6.107C3.709.968 5.673.058 7.72.058s4.01.91 5.458 2.53c1.447 1.62 2.26 3.817 2.26 6.107z" fill="#888"/></svg>